<svg width="70" height="70" viewBox="0 0 70 70" fill="none" xmlns="http://www.w3.org/2000/svg">
<path d="M55.0258 26.9597H53.7512V20.8182C53.7501 20.7791 53.7464 20.7402 53.7399 20.7017C53.7417 20.455 53.6535 20.2161 53.4918 20.0296L43.2608 8.35674L43.2533 8.34923C43.192 8.28313 43.1225 8.22508 43.0465 8.17649L42.9788 8.13518C42.9138 8.09909 42.8451 8.07014 42.7739 8.04882L42.7175 8.03004C42.6394 8.01059 42.5592 8.00051 42.4787 8H17.33C16.1813 8 15.2488 8.93315 15.2488 10.0785V26.9578H13.9742C12.331 26.9578 11 28.2871 11 29.9281V45.3768C11 47.0159 12.3329 48.3471 13.9742 48.3471H15.2488V58.9215C15.2488 60.0669 16.1813 61 17.33 61H51.67C52.8168 61 53.7512 60.0669 53.7512 58.9215V48.3471H55.0258C56.6671 48.3471 58 47.0177 58 45.3768V29.9281C58 28.289 56.669 26.9597 55.0258 26.9597ZM17.33 10.0785H41.4372V20.713C41.4372 21.2876 41.9034 21.7513 42.4787 21.7513H51.6719V26.9578H17.33V10.0785V10.0785ZM32.9001 38.5574C30.3734 37.6562 28.7058 36.2593 28.7058 34.0531C28.7058 31.464 30.8942 29.5057 34.4568 29.5057C36.1939 29.5057 37.4328 29.8436 38.3352 30.2698L37.5682 33.0167C36.5851 32.5385 35.5051 32.2925 34.4116 32.2976C32.9227 32.2976 32.2008 32.9942 32.2008 33.7602C32.2008 34.7291 33.0336 35.1553 35.0189 35.8988C37.7035 36.8901 38.9424 38.2852 38.9424 40.4256C38.9424 42.9716 37.0042 45.1327 32.8324 45.1327C31.0953 45.1327 29.3826 44.6595 28.5254 44.1864L29.2247 41.3719C30.4053 41.9739 31.7082 42.2976 33.0336 42.3182C34.6128 42.3182 35.4475 41.6629 35.4475 40.6734C35.4475 39.7272 34.7275 39.1883 32.9001 38.5574V38.5574ZM14.9912 37.521C14.9912 32.3633 18.6892 29.5038 23.2877 29.5038C25.0699 29.5038 26.4216 29.8624 27.0308 30.1572L26.3088 32.8815C25.3956 32.4986 24.4134 32.3069 23.423 32.3183C20.7177 32.3183 18.599 33.9611 18.599 37.3389C18.599 40.3561 20.4019 42.2713 23.4456 42.2713C24.5059 42.2713 25.6339 42.0704 26.3314 41.7756L26.8296 44.4774C26.2205 44.7684 24.7766 45.1308 22.9512 45.1308C17.6966 45.1327 14.9912 41.845 14.9912 37.521V37.521ZM51.67 58.362H17.33V48.3489H51.67V58.362V58.362ZM48.8914 44.9074H44.8776L40.0084 29.7291H43.774L45.6221 36.1485C46.1391 37.9716 46.6128 39.684 46.9738 41.5747H47.0415C47.4259 39.7704 47.8844 37.9827 48.4158 36.2161L50.3559 29.731H54.0069L48.8914 44.9074V44.9074Z" fill="#ED4C5C"/>
</svg>
